<?xml version="1.0" standalone="no"?>
<!DOCTYPE svg PUBLIC "-//W3C//DTD SVG 20010904//EN"
 "http://www.w3.org/TR/2001/REC-SVG-20010904/DTD/svg10.dtd">
<svg version="1.0" xmlns="http://www.w3.org/2000/svg"
 width="260.000000pt" height="260.000000pt" viewBox="0 0 260.000000 260.000000"
 preserveAspectRatio="xMidYMid meet">
<metadata>
Created by potrace 1.11, written by Peter Selinger 2001-2013
</metadata>
<g transform="translate(0.000000,260.000000) scale(0.100000,-0.100000)"
fill="#000000" stroke="none">
<path d="M0 2400 l0 -40 40 0 40 0 0 -40 0 -40 -40 0 -40 0 0 -45 0 -45 40 0
40 0 0 -80 0 -80 40 0 40 0 0 205 0 205 -80 0 -80 0 0 -40z"/>
<path d="M1710 2400 l0 -40 80 0 80 0 0 40 0 40 -80 0 -80 0 0 -40z"/>
<path d="M2030 2235 l0 -45 -40 0 -40 0 0 -40 0 -40 40 0 40 0 0 -40 0 -40 40
0 40 0 0 125 0 125 -40 0 -40 0 0 -45z"/>
<path d="M1060 2070 l0 -120 -45 0 -45 0 0 -120 0 -120 -40 0 -40 0 0 -40 0
-40 40 0 40 0 0 -85 0 -85 -40 0 -40 0 0 -40 0 -40 -40 0 -40 0 0 40 0 40 -40
0 -40 0 0 -40 0 -40 40 0 40 0 0 -40 0 -40 40 0 40 0 0 -160 0 -160 -40 0 -40
0 0 -125 0 -125 -40 0 -40 0 0 80 0 80 -40 0 -40 0 0 85 0 85 -40 0 -40 0 0
160 0 160 -40 0 -40 0 0 125 0 125 -40 0 -40 0 0 120 0 120 -45 0 -45 0 0
-205 0 -205 45 0 45 0 0 -160 0 -160 40 0 40 0 0 -125 0 -125 40 0 40 0 0 -80
0 -80 40 0 40 0 0 -80 0 -80 40 0 40 0 0 -40 0 -40 40 0 40 0 0 -40 0 -40 40
0 40 0 0 80 0 80 40 0 40 0 0 405 0 405 45 0 45 0 0 205 0 205 40 0 40 0 0
200 0 200 -40 0 -40 0 0 -120z"/>
<path d="M1790 1990 l0 -40 -40 0 -40 0 0 -325 0 -325 40 0 40 0 0 -80 0 -80
-85 0 -85 0 0 40 0 40 -40 0 -40 0 0 -40 0 -40 -40 0 -40 0 0 40 0 40 -40 0
-40 0 0 -80 0 -80 80 0 80 0 0 40 0 40 40 0 40 0 0 -40 0 -40 85 0 85 0 0 -40
0 -40 -85 0 -85 0 0 -45 0 -45 -40 0 -40 0 0 -120 0 -120 40 0 40 0 0 -40 0
-40 45 0 45 0 0 -40 0 -40 80 0 80 0 0 40 0 40 40 0 40 0 0 80 0 80 80 0 80 0
0 -40 0 -40 80 0 80 0 0 40 0 40 125 0 125 0 0 -40 0 -40 40 0 40 0 0 245 0
245 -40 0 -40 0 0 -40 0 -40 -165 0 -165 0 0 40 0 40 40 0 40 0 0 40 0 40 -40
0 -40 0 0 -40 0 -40 -80 0 -80 0 0 -40 0 -40 -40 0 -40 0 0 -40 0 -40 -40 0
-40 0 0 120 0 120 40 0 40 0 0 40 0 40 40 0 40 0 0 40 0 40 -40 0 -40 0 0 -40
0 -40 -40 0 -40 0 0 365 0 365 -40 0 -40 0 0 -40z m650 -1095 l0 -85 -125 0
-125 0 0 -40 0 -40 -40 0 -40 0 0 40 0 40 -40 0 -40 0 0 85 0 85 205 0 205 0
0 -85z m-650 -165 l0 -160 -40 0 -40 0 0 40 0 40 -45 0 -45 0 0 80 0 80 45 0
45 0 0 40 0 40 40 0 40 0 0 -160z m160 120 l0 -40 -40 0 -40 0 0 40 0 40 40 0
40 0 0 -40z"/>
<path d="M2030 1910 l0 -40 40 0 40 0 0 40 0 40 -40 0 -40 0 0 -40z"/>
<path d="M1950 1670 l0 -40 40 0 40 0 0 40 0 40 -40 0 -40 0 0 -40z"/>
<path d="M1540 1585 l0 -45 40 0 40 0 0 45 0 45 -40 0 -40 0 0 -45z"/>
<path d="M160 1500 l0 -40 40 0 40 0 0 40 0 40 -40 0 -40 0 0 -40z"/>
<path d="M1460 1420 l0 -40 -40 0 -40 0 0 -40 0 -40 40 0 40 0 0 40 0 40 40 0
40 0 0 40 0 40 -40 0 -40 0 0 -40z"/>
<path d="M1140 1340 l0 -40 40 0 40 0 0 40 0 40 -40 0 -40 0 0 -40z"/>
<path d="M2360 1260 l0 -40 120 0 120 0 0 40 0 40 -120 0 -120 0 0 -40z"/>
<path d="M1140 815 l0 -165 40 0 40 0 0 -40 0 -40 -40 0 -40 0 0 -40 0 -40
160 0 160 0 0 40 0 40 -40 0 -40 0 0 40 0 40 -40 0 -40 0 0 165 0 165 -80 0
-80 0 0 -165z"/>
<path d="M0 365 l0 -125 40 0 40 0 0 125 0 125 -40 0 -40 0 0 -125z"/>
<path d="M1140 370 l0 -40 80 0 80 0 0 40 0 40 -80 0 -80 0 0 -40z"/>
<path d="M490 80 l0 -80 80 0 80 0 0 40 0 40 40 0 40 0 0 40 0 40 -40 0 -40 0
0 -40 0 -40 -40 0 -40 0 0 40 0 40 -40 0 -40 0 0 -80z"/>
</g>
</svg>
